<?xml version="1.0" encoding="utf-8"?>
<!-- Generator: Adobe Illustrator 25.3.1, SVG Export Plug-In . SVG Version: 6.00 Build 0)  -->
<svg version="1.1" id="Layer_1" xmlns="http://www.w3.org/2000/svg" xmlns:xlink="http://www.w3.org/1999/xlink" x="0px" y="0px"
	 viewBox="0 0 566.9291382 566.9291382" style="enable-background:new 0 0 566.9291382 566.9291382;" xml:space="preserve">
<style type="text/css">
	.st0{fill:#1C1C1C;}
</style>
<path class="st0" d="M283.4636841,476.9107056c-65.2527008,0-125.6628418-32.5601501-161.5971222-87.0982361
	c-20.8334885-31.5550842-31.8477097-68.330719-31.8477097-106.3465881
	c0-106.6671143,86.7794876-193.4474792,193.4448242-193.4474792c106.6671143,0,193.4465942,86.7803726,193.4465942,193.4474792
	c0,41.9909668-13.2212524,81.9194946-38.2336121,115.4655762
	C401.7599182,448.4876404,345.1855164,476.9107056,283.4636841,476.9107056z M283.4636841,100.7208252
	c-100.7636871,0-182.7424164,81.979599-182.7424164,182.7450562c0,35.9133606,10.4010696,70.6492004,30.0796509,100.4536438
	c33.9502258,51.5280151,91.0193481,82.2887878,152.6627655,82.2887878c58.3076477,0,111.75354-26.8518677,146.6304932-73.6714783
	c23.6257935-31.687439,36.113678-69.4019775,36.113678-109.0709534
	C466.2078552,182.7004242,384.229126,100.7208252,283.4636841,100.7208252z"/>
<path class="st0" d="M418.5803528,365.9257202c-2.6756287-9.1862793-9.6500854-16.5174255-18.693634-19.6567993
	c-26.1673889-9.0792847-79.1978455-27.5766296-83.6750488-29.9311523
	c-4.3167114-2.2652893-3.5496216-12.2542725-3.5674744-13.199585c-0.1605835-8.5263367-1.4805298-5.9041748,7.1528015-6.1717834
	l21.7080383,0.8205566c7.8483887,0.3031921,13.9488525-6.7425842,12.5218811-14.4661865l-4.191864-22.7069397
	c-0.8204346-4.3701782-1.2842407-8.8116608-1.4090881-13.2531433l-1.7837524-66.4263306
	c-0.2140503-8.2765656-2.4972839-16.3746948-6.6355591-23.5453491l-1.462677-2.5328827
	c-2.247406-3.9242401-5.1370544-7.4381409-8.5440674-10.3992157l-4.6733704-4.0668488
	c-6.7960205-5.9220276-15.5185242-9.1862946-24.5263672-9.1862946l-5.458252,0.5886688
	c-7.8127747,0.8383026-15.2330627,3.7815094-21.4761353,8.5261993l-5.7258301,4.3523254
	c-4.8695679-2.7647705-10.5775452-3.6923523-16.0714874-2.6577606l-1.8550568,0.356781
	c-5.6009521,1.0523376-10.6845551,4.03125-14.3590546,8.4013214l-9.4181824,11.2376251
	c-4.6733856,5.5473938-7.2062531,12.5931854-7.1349487,19.8529968l0.4816437,55.3314514
	c0.0534668,5.5117798-0.5708008,11.023468-1.8551483,16.3925323l-6.1895142,25.846344
	c-2.5151367,10.4883728,5.7079773,20.477356,16.4817047,20.0314331l24.0625916-1.0167542
	c0.8740082-0.0357056,1.5339813,0.7848511,1.3377991,1.6231689l-3.3534241,14.305603
	c-0.7312927,3.121521-3.0501251,5.6188049-6.1003571,6.5819702L166.28862,345.4127502
	c-8.9543915,2.8182373-15.8931427,9.953186-18.4260254,18.9967346c-2.2653809,8.0625305-1.9977722,16.8027649-1.7302856,22.403717
	c1.4448242,2.0334778,2.9610748,4.0134277,4.5129089,5.9577332c31.126236,39.1173401,79.1265411,64.1788025,132.9954071,64.1788025
	c51.6570435,0,97.9271851-23.0636902,129.0533142-59.4341125h0.0178528l0.1248779-0.1604614
	c2.4972534-2.8896484,4.8695374-5.850708,7.1349182-8.9009399c0.3210754-0.4281006,0.6242676-0.8561707,0.9275818-1.2842407
	l0.0713196-0.0713196L418.5803528,365.9257202z"/>
</svg>
