<?xml version="1.0" encoding="utf-8"?>
<!-- Generator: Adobe Illustrator 25.3.1, SVG Export Plug-In . SVG Version: 6.00 Build 0)  -->
<svg version="1.1" id="Layer_1" xmlns="http://www.w3.org/2000/svg" xmlns:xlink="http://www.w3.org/1999/xlink" x="0px" y="0px"
	 viewBox="0 0 566.9291382 566.9291382" style="enable-background:new 0 0 566.9291382 566.9291382;" xml:space="preserve">
<style type="text/css">
	.st0{fill:#FFFFFF;}
	.st1{fill:#1C1C1C;}
</style>
<path class="st0" d="M535.659668,536.9285278c-168.9495239,0-337.8990479,0-506.9279175,0
	c0-168.9171753,0-337.8519897,0-506.9279175c168.9229736,0,337.9254456,0,506.9279175,0
	C535.659668,198.9356079,535.659668,367.9232788,535.659668,536.9285278z M184.3171997,399.1220093
	c0.1765289,0.0068665,0.3530579,0.0137329,0.5295868,0.0205994c0,10.865509,0.0315857,21.7312012-0.0224762,32.5964355
	c-0.0133057,2.6717834,0.3708801,4.6044006,3.4773407,5.5738525c28.8458862,9.0024414,58.2849731,15.1598206,88.4914703,16.1048584
	c17.2023315,0.538208,34.5423889-0.3213501,51.6921082-1.9244995c18.3678589-1.7171021,36.2112732-6.4176331,53.20755-13.9293213
	c3.2101746-1.4187927,4.8113098-3.2227783,4.773468-7.011261c-0.1957092-19.5888672,0.183136-39.1868591-0.224762-58.7694397
	c-0.7349243-35.2817078-25.1959839-65.4854431-59.9210815-71.6915588
	c-25.8225098-4.6150208-52.2799988-3.6126404-78.2337494-0.6872864
	c-31.1803284,3.5144958-58.0027618,30.7977295-61.9470062,61.3232117
	C184.5031586,373.3927612,184.8644257,386.3160706,184.3171997,399.1220093z M233.2891083,286.8174133
	c-0.9241028-1.1227722-1.5198975-1.8985901-2.1687469-2.6271973
	c-10.9443054-12.2886658-17.6709137-26.4587708-18.9238892-42.9860077c-0.279068-3.6811523-2.0623932-4.5770874-5.4485168-4.5529327
	c-16.4606018,0.1174164-32.9226685,0.0027466-49.3839569,0.0546112
	c-43.6114197,0.1373749-76.9146805,33.3962555-77.0456314,76.9471893
	c-0.0549469,18.2749023,0.1594467,36.5527954-0.1252594,54.8234558c-0.074585,4.7861328,1.2471924,7.1362915,6.057457,8.146637
	c20.8796463,4.3855896,41.6620865,9.2429504,62.5754242,13.4540405c6.6421356,1.3374634,13.5805054,1.2033691,21.1290131,1.8018188
	C166.2233887,341.5176697,185.6328278,305.8024902,233.2891083,286.8174133z M338.4840698,286.5212708
	c0.3756714,0.5121765,0.5080566,0.8876343,0.7591553,1.0016785c1.1935425,0.5422668,2.4183044,1.0162048,3.6340332,1.5093384
	c27.8165894,11.2828674,46.2794189,31.1665955,55.17276,59.9013062c3.9153748,12.6508484,3.6723938,25.6610107,3.4188843,38.6571655
	c-0.0704041,3.6094666,0.9720459,5.0403748,4.7684937,4.7502441c21.7088318-1.6588745,43.1369019-4.7596436,63.7374573-12.1430054
	c15.0458984-5.3925171,15.1237183-5.4715881,14.9906006-21.1704712c-0.1590271-18.755127,0.7423096-37.6314087-1.0647888-56.2366943
	c-3.5912781-36.9745483-35.9841309-65.5660706-73.1017151-66.0393829
	c-15.4732666-0.1973114-30.9518738,0.0436859-46.4258728-0.1204529c-3.5469971-0.0375977-5.0513916,1.165451-5.3177795,4.6869354
	c-1.2238464,16.1775513-7.788269,30.0757751-18.3306274,42.2327881
	C339.8960571,284.5062561,339.1950073,285.5724182,338.4840698,286.5212708z M285.3701172,293.0656738
	c32.1406555,0.2755432,58.9977722-25.9148254,59.2790833-57.8075409
	c0.2912292-33.0178528-25.4296265-59.5990143-58.0142212-59.9546204
	c-32.9718323-0.359848-59.7732391,25.5067444-60.0471802,57.9527588
	C226.3088684,266.2938843,252.3426208,292.7825317,285.3701172,293.0656738z M183.7813263,231.5585632
	c7.4901733,0.1136932,16.8528442-2.1315002,25.3977203-7.1501617c1.7354126-1.0192413,3.4863739-3.1525726,3.9200287-5.0688782
	c3.6414185-16.090683,11.532074-29.5503845,23.6447906-40.7457581c1.8530121-1.7126923,3.1976013-5.0114441,3.1747437-7.5622711
	c-0.3119965-34.8324432-31.8671265-61.6306381-66.8558197-56.7461319
	c-29.1567688,4.0703506-53.5826035,30.1376572-50.4079132,65.3245316
	C125.2262497,208.1096802,151.6256256,231.9297791,183.7813263,231.5585632z M442.852356,172.8262787
	c0.085144-38.090332-34.8357544-65.9849472-72.1242065-57.6123886c-23.643158,5.3087006-42.2896118,25.805687-45.1977539,49.8462601
	c-0.4025879,3.3282471-0.822876,6.4772491,2.8865967,9.1034088c16.3122559,11.5484619,26.4817505,27.2702789,29.861084,47.0353699
	c0.7322388,4.2826385,2.8218079,6.0232697,6.5775452,7.3306885
	C402.9694519,241.7974396,442.7616272,213.4280396,442.852356,172.8262787z"/>
<path class="st1" d="M191.3171997,399.1220093c0.547226-12.8059387,0.1859589-25.729248,1.8224487-38.3944092
	c3.9442444-30.5254822,30.7666779-57.8087158,61.9470062-61.3232117c25.9537506-2.925354,52.4112396-3.9277344,78.2337494,0.6872864
	c34.7250977,6.2061157,59.1861572,36.4098511,59.9210815,71.6915588c0.4078979,19.5825806,0.0290527,39.1805725,0.224762,58.7694397
	c0.0378418,3.7884827-1.5632935,5.5924683-4.773468,7.011261c-16.9962769,7.5116882-34.8396912,12.2122192-53.20755,13.9293213
	c-17.1497192,1.6031494-34.4897766,2.4627075-51.6921082,1.9244995
	c-30.2064972-0.9450378-59.6455841-7.102417-88.4914703-16.1048584c-3.1064606-0.9694519-3.4906464-2.9020691-3.4773407-5.5738525
	c0.0540619-10.8652344,0.0224762-21.7309265,0.0224762-32.5964355
	C191.6702576,399.1357422,191.4937286,399.1288757,191.3171997,399.1220093z"/>
<path class="st1" d="M240.2891083,286.8174133c-47.6562805,18.9850769-67.0657196,54.7002563-63.3341064,105.061615
	c-7.5485077-0.5984497-14.4868774-0.4643555-21.1290131-1.8018188
	c-20.9133453-4.2110901-41.6957779-9.0684509-62.5754242-13.4540405c-4.8102646-1.0103455-6.1320419-3.3605042-6.057457-8.146637
	c0.2847061-18.2706604,0.0703125-36.5485535,0.1252594-54.8234558
	c0.1309509-43.5509338,33.4342117-76.8098145,77.0456314-76.9471893
	c16.4612885-0.0518646,32.9233551,0.0628052,49.3839569-0.0546112c3.3861237-0.0241547,5.1694489,0.8717804,5.4485168,4.5529327
	c1.2529755,16.5272369,7.9795837,30.6973419,18.9238892,42.9860077
	C238.7692108,284.9188232,239.3650055,285.6946411,240.2891083,286.8174133z"/>
<path class="st1" d="M345.4840698,286.5212708c0.7109375-0.9488525,1.4119873-2.0150146,2.2406006-2.9705505
	c10.5423584-12.1570129,17.106781-26.0552368,18.3306274-42.2327881c0.2663879-3.5214844,1.7707825-4.7245331,5.3177795-4.6869354
	c15.473999,0.1641388,30.9526062-0.0768585,46.4258728,0.1204529c37.1175842,0.4733124,69.510437,29.0648346,73.1017151,66.0393829
	c1.8070984,18.6052856,0.9057617,37.4815674,1.0647888,56.2366943c0.1331177,15.6988831,0.0552979,15.7779541-14.9906006,21.1704712
	c-20.6005554,7.3833618-42.0286255,10.4841309-63.7374573,12.1430054c-3.7964478,0.2901306-4.8388977-1.1407776-4.7684937-4.7502441
	c0.2535095-12.9961548,0.4964905-26.0063171-3.4188843-38.6571655c-8.8933411-28.7347107-27.3561707-48.6184387-55.17276-59.9013062
	c-1.2157288-0.4931335-2.4404907-0.9670715-3.6340332-1.5093384
	C345.9921265,287.408905,345.8597412,287.0334473,345.4840698,286.5212708z"/>
<path class="st1" d="M285.3701172,293.0656738c-33.0274963-0.2831421-59.0612488-26.7717896-58.7823181-59.8094025
	c0.273941-32.4460144,27.0753479-58.3126068,60.0471802-57.9527588
	c32.5845947,0.3556061,58.3054504,26.9367676,58.0142212,59.9546204
	C344.3678894,267.1508484,317.5107727,293.341217,285.3701172,293.0656738z"/>
<path class="st1" d="M190.7813263,231.5585632c-32.1557007,0.3712158-58.5550842-23.4488831-61.1264496-51.9486694
	c-3.1746902-35.1868744,21.2511444-61.2541809,50.4079132-65.3245316
	c34.9886932-4.8845062,66.5438232,21.9136887,66.8558197,56.7461319c0.0228577,2.550827-1.3217316,5.8495789-3.1747437,7.5622711
	c-12.1127167,11.1953735-20.0033722,24.6550751-23.6447906,40.7457581
	c-0.4336548,1.9163055-2.1846161,4.0496368-3.9200287,5.0688782
	C207.6341705,229.427063,198.2714996,231.6722565,190.7813263,231.5585632z"/>
<path class="st1" d="M442.852356,172.8262787c-0.0907288,40.6017609-39.8829041,68.9711609-77.9967346,55.7033386
	c-3.7557373-1.3074188-5.8453064-3.0480499-6.5775452-7.3306885c-3.3793335-19.7650909-13.5488281-35.486908-29.861084-47.0353699
	c-3.7094727-2.6261597-3.2891846-5.7751617-2.8865967-9.1034088c2.9081421-24.0405731,21.5545959-44.5375595,45.1977539-49.8462601
	C408.0166016,106.8413315,442.9375,134.7359467,442.852356,172.8262787z"/>
</svg>
