<?xml version="1.0" encoding="utf-8"?>
<!-- Generator: Adobe Illustrator 25.3.1, SVG Export Plug-In . SVG Version: 6.00 Build 0)  -->
<svg version="1.1" id="Layer_1" xmlns="http://www.w3.org/2000/svg" xmlns:xlink="http://www.w3.org/1999/xlink" x="0px" y="0px"
	 viewBox="0 0 566.9291382 566.9291382" style="enable-background:new 0 0 566.9291382 566.9291382;" xml:space="preserve">
<style type="text/css">
	.st0{fill:#1C1C1C;}
</style>
<g>
	<path class="st0" d="M128.6868591,375.2007751H86.0795059V162.6290131c0-5.2992401,4.2958679-9.595108,9.5950928-9.595108
		h23.4171524c5.2992325,0,9.595108,4.2958679,9.595108,9.595108V375.2007751z"/>
	<path class="st0" d="M119.0917511,413.8952332H95.6745987c-5.2992249,0-9.5950928-4.2958984-9.5950928-9.5951233v-21.708252
		h42.6073532v21.708252C128.6868591,409.5993347,124.3909836,413.8952332,119.0917511,413.8952332z"/>
	<path class="st0" d="M474.2728882,296.072876h-37.3349304v79.1278992h43.9116821v-72.551178
		C480.8496399,299.0173645,477.9051208,296.072876,474.2728882,296.072876z"/>
	<rect x="107.3831711" y="296.072876" class="st0" width="335.2067871" height="65.2153244"/>
	<path class="st0" d="M470.9607849,413.8952332h-24.1340027c-5.4614563,0-9.8888245-4.4273987-9.8888245-9.888855v-19.6754456
		h43.9116821v19.6754456C480.8496399,409.4678345,476.4222412,413.8952332,470.9607849,413.8952332z"/>
	<path class="st0" d="M452.1548767,284.3341064H231.2923126v-56.9547272h195.2103729
		c14.1672974,0,25.6521912,11.4848938,25.6521912,25.6522064V284.3341064z"/>
	<rect x="145.2080688" y="272.1605835" class="st0" width="104.7792816" height="12.1735411"/>
	<circle class="st0" cx="187.6930847" cy="235.2900391" r="31.3033581"/>
</g>
</svg>
