<?xml version="1.0" encoding="utf-8"?>
<!-- Generator: Adobe Illustrator 25.3.1, SVG Export Plug-In . SVG Version: 6.00 Build 0)  -->
<svg version="1.1" id="Layer_1" xmlns="http://www.w3.org/2000/svg" xmlns:xlink="http://www.w3.org/1999/xlink" x="0px" y="0px"
	 viewBox="0 0 566.9291382 566.9291382" style="enable-background:new 0 0 566.9291382 566.9291382;" xml:space="preserve">
<style type="text/css">
	.st0{fill:#1C1C1C;}
</style>
<path class="st0" d="M283.4636841,476.9107056c-65.2527008,0-125.6628418-32.5601501-161.5971222-87.0982361
	c-20.8334885-31.5550842-31.8477097-68.330719-31.8477097-106.3465881
	c0-106.6671143,86.7794876-193.4474792,193.4448242-193.4474792c106.6671143,0,193.4465942,86.7803726,193.4465942,193.4474792
	c0,41.9909668-13.2212524,81.9194946-38.2336121,115.4655762
	C401.7599182,448.4876404,345.1855164,476.9107056,283.4636841,476.9107056z M283.4636841,100.7208252
	c-100.7636871,0-182.7424164,81.979599-182.7424164,182.7450562c0,35.9133606,10.4010696,70.6492004,30.0796509,100.4536438
	c33.9502258,51.5280151,91.0193481,82.2887878,152.6627655,82.2887878c58.3076477,0,111.75354-26.8518677,146.6304932-73.6714783
	c23.6257935-31.687439,36.113678-69.4019775,36.113678-109.0709534
	C466.2078552,182.7004242,384.229126,100.7208252,283.4636841,100.7208252z"/>
<path class="st0" d="M283.8408508,476.5864563c-65.1442108,0.2101135-125.5588074-32.1009216-161.607605-86.4336243
	c-20.900177-31.4350891-32.0143661-68.1135864-32.1367874-106.0657654
	c-0.343483-106.4882965,86.0110855-193.4009094,192.4985046-193.7443848
	c106.4883118-0.3434906,193.4017639,86.0102158,193.7452698,192.4985046
	c0.1351929,41.9205933-12.9353027,81.8247681-37.7977295,115.3969116
	C401.84552,447.8300781,345.4583435,476.3876953,283.8408508,476.5864563z M282.629425,101.027153
	c-100.5956573,0.3244858-182.1729736,82.4289169-181.8484802,183.0254517
	c0.1156464,35.8531799,10.6111298,70.4972839,30.3527222,100.188385
	c34.0592499,51.3340759,91.1317596,81.8594971,152.6727295,81.6609802
	c58.2090454-0.1877747,111.4780273-27.1667175,146.1483154-74.0201416
	c23.4841614-31.7104187,35.8287964-69.4036865,35.7010498-109.0061646
	C465.3312683,182.279129,383.2259827,100.7026672,282.629425,101.027153z"/>
<path class="st0" d="M422.7059937,384.2205811c-31.8872681,43.2600403-82.5574951,71.3059692-139.7083435,71.4902954
	c-57.789978,0.1864014-109.1533356-28.1645508-141.2669525-72.0759888c2.6459503-11.8143311,10.2497559-32,27.1879578-39.626709
	c23.4657135-10.5198975,59.8289337-24.6997375,61.5250244-25.3579102c0.036377-0.0187988,0.072937-0.0189209,0.1094208-0.0376892
	c0.9843903-0.4880981,12.9429016-6.5507507,14.6954498-12.3007812c1.8249207-5.973938,2.1069031-14.8152771,2.1069031-14.8152771
	s0.2951508-4.7194519-1.8736115-9.1139221c-2.1687469-4.3946228-8.0817413-20.4335632-8.0888977-22.6529541
	c-0.0070496-2.1820374-2.1616058-2.1750793-2.1616058-2.1750793l-2.172821,0.0069885
	c-0.9312439,0.0030212-1.772995-0.553772-2.1591339-1.4104919l-2.7769318-6.1269989l-2.4280701-5.5314026
	c-0.0368652-0.0931091-0.0735474-0.1675568-0.1286774-0.2607269c-0.4038086-0.6700897-2.4500275-12.3386993-2.4500275-12.3386993
	c-0.0016327-0.503479,0.0332947-1.0071869,0.1046753-1.5110168l0.497467-4.2911835c0,0,0.923111-2.520752,2.7834167-3.1609192
	c0.6931305-0.2260284,1.5511169-0.30336,2.3363647-0.2686615c1.2782745,0.0332184,2.3707123-0.9215088,2.4577789-2.2273407
	l0.0529022-0.5968781c0.0532684-0.4478912-0.039444-0.8951721-0.2415924-1.3047791
	c-1.2677612-2.4391174-5.122757-8.8237762-5.9282684-20.7761841c-0.1724548-2.5358887-1.4247742-11.4840393,2.6961823-24.5713348
	c10.7541351-34.146347,76.70401-57.560257,107.5386963-8.2174225c1.9454651,3.0897522,3.1030579,5.3427734,4.6612244,12.8911591
	c1.576355,7.5483246,1.8959961,16.0519104,1.612915,18.8877258c-0.3012085,2.8357697-2.414093,15.767334-3.0288696,17.6530304
	c-0.5964355,1.8669739-3.0715942,4.4115143-3.0665283,5.9780731c0.0050659,1.5666656-1.5336914,0.0049438,0.0050659,1.5666656
	c1.5571899,1.5802155,4.8985901,1.5881195,6.0805359,5.7246552c0.5722351,1.9192047,0.9533691,6.8602753,0.2544861,10.9656525
	c-0.7171326,4.0867767-4.061615,14.4858856-4.6773071,16.0545502c-0.3621521,0.9523621-1.0705872,2.0923157-1.5609436,2.8958435
	c-0.3633118,0.5793152-0.9463806,0.9729004-1.6399841,1.0497131c-1.1680603,0.1715393-2.6095276,0.4746704-3.6867981,0.4968262
	c-0.8946838,0.0028687-1.2539062,13.1525879-8.5137329,26.753479c-1.5426941,2.9145508-2.6281738,6.0326538-3.0923767,9.2979736
	c-0.4282227,3.0973206-0.8552856,6.5491028-0.7791748,7.5186157c0.0006104,0.186554,0.0193787,0.3356323,0.0746765,0.5220032
	c0.258606,0.9130249,1.3085938,3.7632141,4.8783264,6.6051636c4.3386536,3.4736328,11.75177,9.1008606,13.2866211,9.4129333
	c1.5529785,0.3120422,27.7892456,10.9327393,29.3260498,11.860321c1.5369263,0.9649048,16.9798889,5.2978821,20.0504761,6.2391968
	c3.0888367,0.9412231,15.1368408,5.6209717,16.9871521,7.5172729c1.8502808,1.8777466,9.2704773,4.0358887,14.5393372,18.5289917
	C419.4639282,369.7395935,421.3692627,377.3988647,422.7059937,384.2205811z"/>
</svg>
